<svg xmlns="http://www.w3.org/2000/svg" version="1.0" viewBox="0 0 100 125">
  <defs/>
  <path fill="none" d="M78.9 27.4h3.9v17.1h-3.9V27.4zm8.2 20.4v4.5H12.4v-4.5h74.7zm-16-20.4H75v17.1h-3.9V27.4zm-7.8 0h3.9v17.1h-3.9V27.4zm-11.6 0h7.8v17.1h-7.8V27.4zm-7.8 0h3.9v17.1h-3.9V27.4zm-7.7 0h3.9v17.1h-3.9V27.4zm-11.7 0h7.8v17.1h-7.8V27.4zm-3.8 17.1h-3.9V27.4h3.9v17.1zM5 15h13.8v3.8h-10v10H5V15zm13.8 70H5V71.2h3.9v10h10V85zm1.9-11.9h-3.9V55.9h3.9v17.2zm11.6 0h-7.8V55.9h7.8v17.2zm7.8 0h-3.9V55.9h3.9v17.2zm7.7 0h-3.9V55.9h3.9v17.2zm11.7 0h-7.8V55.9h7.8v17.2zm7.7 0h-3.9V55.9h3.9v17.2zm7.8 0h-3.9V55.9H75v17.2zm3.9-17.2h3.9V73h-3.9V55.9zM95 85H81.2v-3.8h10v-10H95V85zm0-56.2h-3.9v-10h-10V15H95v13.8z"/>
  <path d="M36.2 27.4h3.9v17.1h-3.9zM24.5 27.4h7.8v17.1h-7.8zM24.5 55.9h7.8V73h-7.8zM16.8 55.9h3.9V73h-3.9zM16.8 27.4h3.9v17.1h-3.9zM71.1 27.4H75v17.1h-3.9zM51.7 27.4h7.8v17.1h-7.8zM43.9 27.4h3.9v17.1h-3.9zM63.3 27.4h3.9v17.1h-3.9zM71.1 55.9H75V73h-3.9zM78.9 55.9h3.9V73h-3.9zM36.2 55.9h3.9V73h-3.9zM63.3 55.9h3.9V73h-3.9zM78.9 27.4h3.9v17.1h-3.9zM51.7 55.9h7.8V73h-7.8zM43.9 55.9h3.9V73h-3.9zM12.4 47.8h74.7v4.5H12.4zM8.9 18.8h9.9V15H5v13.8h3.9zM81.2 18.8h9.9v10H95V15H81.2zM8.9 71.2H5V85h13.8v-3.8H8.9zM91.1 81.2h-9.9V85H95V71.2h-3.9z"/>
</svg>
